<?xml version="1.0" encoding="utf-8"?>
<!-- Generator: Adobe Illustrator 15.0.0, SVG Export Plug-In . SVG Version: 6.00 Build 0)  -->
<!DOCTYPE svg PUBLIC "-//W3C//DTD SVG 1.1//EN" "http://www.w3.org/Graphics/SVG/1.1/DTD/svg11.dtd">
<svg version="1.1" id="Layer_1" xmlns="http://www.w3.org/2000/svg" xmlns:xlink="http://www.w3.org/1999/xlink" x="0px" y="0px"
	 width="150px" height="138.136px" viewBox="0 0 150 138.136" enable-background="new 0 0 150 138.136" xml:space="preserve">
<g>
	<g>
		<defs>
			<path id="SVGID_1_" d="M74.984,138.136C116.4,138.136,150,104.821,150,63.69c0-0.096-0.031-0.221-0.031-0.349
				c-0.189,40.814-33.443,73.814-74.479,73.814c-41.162,0-74.509-33.189-74.509-74.162C0.981,36.417,15.06,13.099,36.163,0
				C14.491,13.036,0,36.702,0,63.69C0,104.821,33.569,138.136,74.984,138.136L74.984,138.136z"/>
		</defs>
		<clipPath id="SVGID_2_">
			<use xlink:href="#SVGID_1_"  overflow="visible"/>
		</clipPath>
		<polygon clip-path="url(#SVGID_2_)" fill-rule="evenodd" clip-rule="evenodd" fill="#141515" points="-30.152,25.09 
			-21.926,21.989 33.822,169.364 25.596,172.464 		"/>
		<polygon clip-path="url(#SVGID_2_)" fill-rule="evenodd" clip-rule="evenodd" fill="#151616" points="-22.179,22.085 
			-21.388,21.768 34.36,169.174 33.569,169.458 		"/>
		<polygon clip-path="url(#SVGID_2_)" fill-rule="evenodd" clip-rule="evenodd" fill="#161717" points="-21.642,21.863 
			-20.818,21.579 34.897,168.953 34.107,169.269 		"/>
		<polygon clip-path="url(#SVGID_2_)" fill-rule="evenodd" clip-rule="evenodd" fill="#171818" points="-21.104,21.673 
			-20.281,21.356 35.467,168.763 34.645,169.047 		"/>
		<polygon clip-path="url(#SVGID_2_)" fill-rule="evenodd" clip-rule="evenodd" fill="#181919" points="-20.566,21.452 
			-19.743,21.167 36.005,168.542 35.183,168.858 		"/>
		<polygon clip-path="url(#SVGID_2_)" fill-rule="evenodd" clip-rule="evenodd" fill="#191A1A" points="-20.028,21.262 
			-19.205,20.946 36.543,168.352 35.721,168.636 		"/>
		<polygon clip-path="url(#SVGID_2_)" fill-rule="evenodd" clip-rule="evenodd" fill="#1A1B1B" points="-19.49,21.041 
			-18.667,20.755 37.081,168.129 36.258,168.447 		"/>
		<polygon clip-path="url(#SVGID_2_)" fill-rule="evenodd" clip-rule="evenodd" fill="#1C1D1D" points="-18.92,20.85 
			-18.129,20.534 37.619,167.94 36.827,168.224 		"/>
		<polygon clip-path="url(#SVGID_2_)" fill-rule="evenodd" clip-rule="evenodd" fill="#1D1E1E" points="-18.382,20.629 
			-17.56,20.345 38.157,167.719 37.365,168.035 		"/>
		<polygon clip-path="url(#SVGID_2_)" fill-rule="evenodd" clip-rule="evenodd" fill="#1E1F1F" points="-17.845,20.439 
			-17.022,20.123 38.726,167.529 37.903,167.814 		"/>
		<polygon clip-path="url(#SVGID_2_)" fill-rule="evenodd" clip-rule="evenodd" fill="#1F2020" points="-17.307,20.218 
			-16.484,19.933 39.264,167.308 38.441,167.624 		"/>
		<polygon clip-path="url(#SVGID_2_)" fill-rule="evenodd" clip-rule="evenodd" fill="#202121" points="-16.769,20.028 
			-15.946,19.711 39.801,167.117 38.979,167.403 		"/>
		<polygon clip-path="url(#SVGID_2_)" fill-rule="evenodd" clip-rule="evenodd" fill="#212222" points="-16.231,19.807 
			-15.408,19.521 40.339,166.896 39.517,167.213 		"/>
		<polygon clip-path="url(#SVGID_2_)" fill-rule="evenodd" clip-rule="evenodd" fill="#222323" points="-15.661,19.616 
			-14.871,19.3 40.877,166.707 40.055,166.991 		"/>
		<polygon clip-path="url(#SVGID_2_)" fill-rule="evenodd" clip-rule="evenodd" fill="#232424" points="-15.124,19.395 
			-14.333,19.11 41.415,166.485 40.625,166.801 		"/>
		<polygon clip-path="url(#SVGID_2_)" fill-rule="evenodd" clip-rule="evenodd" fill="#242525" points="-14.586,19.206 
			-13.763,18.889 41.985,166.295 41.162,166.58 		"/>
		<polygon clip-path="url(#SVGID_2_)" fill-rule="evenodd" clip-rule="evenodd" fill="#252626" points="-14.048,18.984 
			-13.225,18.699 42.522,166.074 41.7,166.39 		"/>
		<polygon clip-path="url(#SVGID_2_)" fill-rule="evenodd" clip-rule="evenodd" fill="#262727" points="-13.51,18.794 
			-12.687,18.478 43.061,165.883 42.238,166.201 		"/>
		<polygon clip-path="url(#SVGID_2_)" fill-rule="evenodd" clip-rule="evenodd" fill="#272828" points="-12.972,18.573 
			-12.149,18.288 43.599,165.662 42.775,165.979 		"/>
		<polygon clip-path="url(#SVGID_2_)" fill-rule="evenodd" clip-rule="evenodd" fill="#292929" points="-12.435,18.382 
			-11.612,18.066 44.136,165.472 43.313,165.789 		"/>
		<polygon clip-path="url(#SVGID_2_)" fill-rule="evenodd" clip-rule="evenodd" fill="#2A2A2A" points="-11.865,18.161 
			-11.074,17.876 44.674,165.251 43.883,165.567 		"/>
		<polygon clip-path="url(#SVGID_2_)" fill-rule="evenodd" clip-rule="evenodd" fill="#2B2C2C" points="-11.327,17.972 
			-10.504,17.655 45.212,165.061 44.421,165.377 		"/>
		<polygon clip-path="url(#SVGID_2_)" fill-rule="evenodd" clip-rule="evenodd" fill="#2C2D2D" points="-10.789,17.781 
			-9.967,17.465 45.782,164.84 44.958,165.156 		"/>
		<polygon clip-path="url(#SVGID_2_)" fill-rule="evenodd" clip-rule="evenodd" fill="#2D2E2E" points="-10.251,17.56 
			-9.429,17.244 46.319,164.649 45.497,164.966 		"/>
		<polygon clip-path="url(#SVGID_2_)" fill-rule="evenodd" clip-rule="evenodd" fill="#2E2F2F" points="-9.713,17.371 
			-8.891,17.054 46.857,164.428 46.035,164.745 		"/>
		<polygon clip-path="url(#SVGID_2_)" fill-rule="evenodd" clip-rule="evenodd" fill="#2F3030" points="-9.175,17.149 
			-8.353,16.833 47.395,164.239 46.572,164.554 		"/>
		<polygon clip-path="url(#SVGID_2_)" fill-rule="evenodd" clip-rule="evenodd" fill="#303131" points="-8.606,16.959 
			-7.815,16.643 47.933,164.017 47.11,164.333 		"/>
		<polygon clip-path="url(#SVGID_2_)" fill-rule="evenodd" clip-rule="evenodd" fill="#313232" points="-8.068,16.737 
			-7.277,16.421 48.471,163.828 47.68,164.144 		"/>
		<polygon clip-path="url(#SVGID_2_)" fill-rule="evenodd" clip-rule="evenodd" fill="#323333" points="-7.53,16.547 -6.708,16.231 
			49.04,163.606 48.218,163.922 		"/>
		<polygon clip-path="url(#SVGID_2_)" fill-rule="evenodd" clip-rule="evenodd" fill="#333434" points="-6.993,16.326 -6.169,16.01 
			49.578,163.416 48.756,163.733 		"/>
		<polygon clip-path="url(#SVGID_2_)" fill-rule="evenodd" clip-rule="evenodd" fill="#343535" points="-6.455,16.136 -5.632,15.82 
			50.116,163.194 49.293,163.51 		"/>
		<polygon clip-path="url(#SVGID_2_)" fill-rule="evenodd" clip-rule="evenodd" fill="#353636" points="-5.917,15.915 
			-5.094,15.599 50.654,163.004 49.831,163.321 		"/>
		<polygon clip-path="url(#SVGID_2_)" fill-rule="evenodd" clip-rule="evenodd" fill="#373737" points="-5.379,15.725 
			-4.557,15.409 51.192,162.784 50.369,163.099 		"/>
		<polygon clip-path="url(#SVGID_2_)" fill-rule="evenodd" clip-rule="evenodd" fill="#383838" points="-4.809,15.503 
			-4.019,15.187 51.73,162.593 50.938,162.91 		"/>
		<polygon clip-path="url(#SVGID_2_)" fill-rule="evenodd" clip-rule="evenodd" fill="#393A3A" points="-4.271,15.313 
			-3.449,14.998 52.268,162.372 51.477,162.688 		"/>
		<polygon clip-path="url(#SVGID_2_)" fill-rule="evenodd" clip-rule="evenodd" fill="#3A3B3B" points="-3.733,15.092 
			-2.911,14.776 52.837,162.181 52.014,162.499 		"/>
		<polygon clip-path="url(#SVGID_2_)" fill-rule="evenodd" clip-rule="evenodd" fill="#3B3C3C" points="-3.196,14.902 
			-2.373,14.586 53.375,161.992 52.552,162.277 		"/>
		<polygon clip-path="url(#SVGID_2_)" fill-rule="evenodd" clip-rule="evenodd" fill="#3C3D3D" points="-2.658,14.681 
			-1.835,14.364 53.913,161.771 53.09,162.086 		"/>
		<polygon clip-path="url(#SVGID_2_)" fill-rule="evenodd" clip-rule="evenodd" fill="#3D3E3E" points="-2.12,14.491 -1.297,14.175 
			54.45,161.581 53.628,161.866 		"/>
		<polygon clip-path="url(#SVGID_2_)" fill-rule="evenodd" clip-rule="evenodd" fill="#3E3F3F" points="-1.551,14.27 -0.759,13.954 
			54.988,161.36 54.166,161.676 		"/>
		<polygon clip-path="url(#SVGID_2_)" fill-rule="evenodd" clip-rule="evenodd" fill="#3F4040" points="-1.013,14.08 -0.222,13.763 
			55.526,161.169 54.735,161.455 		"/>
		<polygon clip-path="url(#SVGID_2_)" fill-rule="evenodd" clip-rule="evenodd" fill="#404141" points="-0.475,13.858 0.348,13.574 
			56.096,160.948 55.273,161.265 		"/>
		<polygon clip-path="url(#SVGID_2_)" fill-rule="evenodd" clip-rule="evenodd" fill="#414242" points="0.063,13.668 0.886,13.352 
			56.634,160.758 55.811,161.042 		"/>
		<polygon clip-path="url(#SVGID_2_)" fill-rule="evenodd" clip-rule="evenodd" fill="#424343" points="0.601,13.447 1.424,13.162 
			57.171,160.537 56.349,160.853 		"/>
		<polygon clip-path="url(#SVGID_2_)" fill-rule="evenodd" clip-rule="evenodd" fill="#444444" points="1.139,13.257 1.961,12.941 
			57.709,160.347 56.887,160.631 		"/>
		<polygon clip-path="url(#SVGID_2_)" fill-rule="evenodd" clip-rule="evenodd" fill="#454545" points="1.708,13.036 2.499,12.751 
			58.248,160.125 57.424,160.442 		"/>
		<polygon clip-path="url(#SVGID_2_)" fill-rule="evenodd" clip-rule="evenodd" fill="#464646" points="2.246,12.846 3.037,12.529 
			58.785,159.935 57.994,160.22 		"/>
		<polygon clip-path="url(#SVGID_2_)" fill-rule="evenodd" clip-rule="evenodd" fill="#474848" points="2.784,12.625 3.606,12.34 
			59.323,159.713 58.532,160.03 		"/>
		<polygon clip-path="url(#SVGID_2_)" fill-rule="evenodd" clip-rule="evenodd" fill="#484949" points="3.322,12.435 4.145,12.118 
			59.892,159.524 59.07,159.809 		"/>
		<polygon clip-path="url(#SVGID_2_)" fill-rule="evenodd" clip-rule="evenodd" fill="#494A4A" points="3.86,12.213 4.682,11.928 
			60.43,159.303 59.608,159.619 		"/>
		<polygon clip-path="url(#SVGID_2_)" fill-rule="evenodd" clip-rule="evenodd" fill="#4A4B4B" points="4.398,12.023 5.22,11.707 
			60.968,159.113 60.146,159.398 		"/>
		<polygon clip-path="url(#SVGID_2_)" fill-rule="evenodd" clip-rule="evenodd" fill="#4B4C4C" points="4.935,11.802 5.758,11.517 
			61.506,158.892 60.684,159.208 		"/>
		<polygon clip-path="url(#SVGID_2_)" fill-rule="evenodd" clip-rule="evenodd" fill="#4C4D4D" points="5.505,11.612 6.296,11.295 
			62.044,158.702 61.253,158.987 		"/>
		<polygon clip-path="url(#SVGID_2_)" fill-rule="evenodd" clip-rule="evenodd" fill="#4D4E4E" points="6.042,11.39 6.834,11.106 
			62.582,158.48 61.791,158.796 		"/>
		<polygon clip-path="url(#SVGID_2_)" fill-rule="evenodd" clip-rule="evenodd" fill="#4E4F4F" points="6.581,11.201 7.403,10.884 
			63.151,158.291 62.329,158.575 		"/>
		<polygon clip-path="url(#SVGID_2_)" fill-rule="evenodd" clip-rule="evenodd" fill="#4F5050" points="7.119,10.979 7.941,10.694 
			63.689,158.069 62.866,158.385 		"/>
		<polygon clip-path="url(#SVGID_2_)" fill-rule="evenodd" clip-rule="evenodd" fill="#505151" points="7.656,10.789 8.479,10.473 
			64.227,157.879 63.404,158.164 		"/>
		<polygon clip-path="url(#SVGID_2_)" fill-rule="evenodd" clip-rule="evenodd" fill="#525252" points="8.194,10.568 9.017,10.283 
			64.765,157.657 63.942,157.974 		"/>
		<polygon clip-path="url(#SVGID_2_)" fill-rule="evenodd" clip-rule="evenodd" fill="#535353" points="8.764,10.378 9.555,10.062 
			65.302,157.467 64.48,157.785 		"/>
		<polygon clip-path="url(#SVGID_2_)" fill-rule="evenodd" clip-rule="evenodd" fill="#545454" points="9.302,10.156 10.093,9.872 
			65.841,157.247 65.049,157.562 		"/>
		<polygon clip-path="url(#SVGID_2_)" fill-rule="evenodd" clip-rule="evenodd" fill="#555555" points="9.84,9.967 10.662,9.65 
			66.378,157.056 65.587,157.373 		"/>
		<polygon clip-path="url(#SVGID_2_)" fill-rule="evenodd" clip-rule="evenodd" fill="#565757" points="10.377,9.746 11.2,9.46 
			66.948,156.835 66.125,157.151 		"/>
		<polygon clip-path="url(#SVGID_2_)" fill-rule="evenodd" clip-rule="evenodd" fill="#575858" points="10.916,9.555 11.738,9.239 
			67.486,156.646 66.664,156.961 		"/>
		<polygon clip-path="url(#SVGID_2_)" fill-rule="evenodd" clip-rule="evenodd" fill="#585959" points="11.453,9.334 12.276,9.049 
			68.023,156.423 67.201,156.741 		"/>
		<polygon clip-path="url(#SVGID_2_)" fill-rule="evenodd" clip-rule="evenodd" fill="#595A5A" points="11.991,9.145 12.814,8.828 
			68.562,156.234 67.74,156.55 		"/>
		<polygon clip-path="url(#SVGID_2_)" fill-rule="evenodd" clip-rule="evenodd" fill="#5A5B5B" points="12.56,8.954 13.352,8.638 
			69.099,156.012 68.308,156.329 		"/>
		<polygon clip-path="url(#SVGID_2_)" fill-rule="evenodd" clip-rule="evenodd" fill="#5B5C5C" points="13.098,8.733 13.89,8.416 
			69.637,155.823 68.847,156.138 		"/>
		<polygon clip-path="url(#SVGID_2_)" fill-rule="evenodd" clip-rule="evenodd" fill="#5C5D5D" points="13.636,8.543 14.459,8.227 
			70.207,155.601 69.384,155.917 		"/>
		<polygon clip-path="url(#SVGID_2_)" fill-rule="evenodd" clip-rule="evenodd" fill="#5D5E5E" points="14.174,8.321 14.997,8.005 
			70.744,155.412 69.921,155.728 		"/>
		<polygon clip-path="url(#SVGID_2_)" fill-rule="evenodd" clip-rule="evenodd" fill="#5E5F5F" points="14.712,8.132 15.534,7.815 
			71.283,155.189 70.459,155.506 		"/>
		<polygon clip-path="url(#SVGID_2_)" fill-rule="evenodd" clip-rule="evenodd" fill="#606060" points="15.25,7.911 16.072,7.594 
			71.821,155 70.997,155.316 		"/>
		<polygon clip-path="url(#SVGID_2_)" fill-rule="evenodd" clip-rule="evenodd" fill="#616161" points="15.819,7.72 16.61,7.404 
			72.359,154.779 71.536,155.094 		"/>
		<polygon clip-path="url(#SVGID_2_)" fill-rule="evenodd" clip-rule="evenodd" fill="#626262" points="16.357,7.499 17.148,7.182 
			72.896,154.588 72.104,154.905 		"/>
		<polygon clip-path="url(#SVGID_2_)" fill-rule="evenodd" clip-rule="evenodd" fill="#636363" points="16.895,7.309 17.718,6.993 
			73.434,154.368 72.643,154.683 		"/>
		<polygon clip-path="url(#SVGID_2_)" fill-rule="evenodd" clip-rule="evenodd" fill="#646565" points="17.433,7.087 18.255,6.771 
			74.003,154.178 73.181,154.494 		"/>
		<polygon clip-path="url(#SVGID_2_)" fill-rule="evenodd" clip-rule="evenodd" fill="#656666" points="17.971,6.898 18.793,6.581 
			74.542,153.956 73.718,154.273 		"/>
		<polygon clip-path="url(#SVGID_2_)" fill-rule="evenodd" clip-rule="evenodd" fill="#666767" points="18.508,6.676 19.332,6.36 
			75.079,153.766 74.256,154.082 		"/>
		<polygon clip-path="url(#SVGID_2_)" fill-rule="evenodd" clip-rule="evenodd" fill="#676868" points="19.046,6.486 19.869,6.17 
			75.617,153.576 74.794,153.861 		"/>
		<polygon clip-path="url(#SVGID_2_)" fill-rule="evenodd" clip-rule="evenodd" fill="#686969" points="19.616,6.265 20.407,5.948 
			76.154,153.355 75.364,153.671 		"/>
		<polygon clip-path="url(#SVGID_2_)" fill-rule="evenodd" clip-rule="evenodd" fill="#696A6A" points="20.154,6.075 20.977,5.759 
			76.691,153.166 75.902,153.45 		"/>
		<polygon clip-path="url(#SVGID_2_)" fill-rule="evenodd" clip-rule="evenodd" fill="#6A6B6B" points="20.692,5.854 21.515,5.538 
			77.262,152.943 76.439,153.26 		"/>
		<polygon clip-path="url(#SVGID_2_)" fill-rule="evenodd" clip-rule="evenodd" fill="#6B6C6C" points="21.229,5.664 22.052,5.347 
			77.799,152.753 76.979,153.039 		"/>
		<polygon clip-path="url(#SVGID_2_)" fill-rule="evenodd" clip-rule="evenodd" fill="#6D6D6D" points="21.768,5.442 22.59,5.126 
			78.338,152.532 77.516,152.848 		"/>
		<polygon clip-path="url(#SVGID_2_)" fill-rule="evenodd" clip-rule="evenodd" fill="#6E6E6E" points="22.305,5.252 23.128,4.936 
			78.875,152.342 78.053,152.626 		"/>
		<polygon clip-path="url(#SVGID_2_)" fill-rule="evenodd" clip-rule="evenodd" fill="#6F6F6F" points="22.875,5.031 23.666,4.746 
			79.414,152.121 78.592,152.437 		"/>
		<polygon clip-path="url(#SVGID_2_)" fill-rule="evenodd" clip-rule="evenodd" fill="#707070" points="23.413,4.841 24.204,4.525 
			79.951,151.931 79.16,152.215 		"/>
		<polygon clip-path="url(#SVGID_2_)" fill-rule="evenodd" clip-rule="evenodd" fill="#717171" points="23.951,4.62 24.773,4.335 
			80.49,151.708 79.699,152.026 		"/>
		<polygon clip-path="url(#SVGID_2_)" fill-rule="evenodd" clip-rule="evenodd" fill="#727373" points="24.489,4.43 25.311,4.113 
			81.059,151.519 80.236,151.805 		"/>
		<polygon clip-path="url(#SVGID_2_)" fill-rule="evenodd" clip-rule="evenodd" fill="#737474" points="25.026,4.208 25.849,3.924 
			81.598,151.298 80.773,151.614 		"/>
		<polygon clip-path="url(#SVGID_2_)" fill-rule="evenodd" clip-rule="evenodd" fill="#747575" points="25.564,4.019 26.387,3.702 
			82.135,151.108 81.313,151.393 		"/>
		<polygon clip-path="url(#SVGID_2_)" fill-rule="evenodd" clip-rule="evenodd" fill="#757676" points="26.102,3.797 26.925,3.512 
			82.674,150.887 81.85,151.204 		"/>
		<polygon clip-path="url(#SVGID_2_)" fill-rule="evenodd" clip-rule="evenodd" fill="#767777" points="26.671,3.607 27.463,3.291 
			83.211,150.698 82.42,150.982 		"/>
		<polygon clip-path="url(#SVGID_2_)" fill-rule="evenodd" clip-rule="evenodd" fill="#777878" points="27.209,3.386 28.032,3.101 
			83.748,150.475 82.957,150.792 		"/>
		<polygon clip-path="url(#SVGID_2_)" fill-rule="evenodd" clip-rule="evenodd" fill="#787979" points="27.747,3.196 28.57,2.879 
			84.318,150.286 83.494,150.57 		"/>
		<polygon clip-path="url(#SVGID_2_)" fill-rule="evenodd" clip-rule="evenodd" fill="#797A7A" points="28.285,2.975 29.107,2.69 
			84.855,150.064 84.033,150.38 		"/>
		<polygon clip-path="url(#SVGID_2_)" fill-rule="evenodd" clip-rule="evenodd" fill="#7B7B7B" points="28.823,2.785 29.646,2.468 
			85.395,149.875 84.57,150.159 		"/>
		<polygon clip-path="url(#SVGID_2_)" fill-rule="evenodd" clip-rule="evenodd" fill="#7C7C7C" points="29.361,2.563 30.183,2.278 
			85.932,149.653 85.109,149.969 		"/>
		<polygon clip-path="url(#SVGID_2_)" fill-rule="evenodd" clip-rule="evenodd" fill="#7D7D7D" points="29.931,2.373 30.721,2.057 
			86.469,149.463 85.646,149.748 		"/>
		<polygon clip-path="url(#SVGID_2_)" fill-rule="evenodd" clip-rule="evenodd" fill="#7E7E7E" points="30.468,2.152 31.259,1.867 
			87.008,149.241 86.215,149.558 		"/>
		<polygon clip-path="url(#SVGID_2_)" fill-rule="evenodd" clip-rule="evenodd" fill="#7F7F7F" points="31.006,1.962 31.829,1.646 
			87.576,149.051 86.754,149.368 		"/>
		<polygon clip-path="url(#SVGID_2_)" fill-rule="evenodd" clip-rule="evenodd" fill="#808080" points="31.543,1.741 32.367,1.456 
			88.115,148.831 87.291,149.146 		"/>
		<polygon clip-path="url(#SVGID_2_)" fill-rule="evenodd" clip-rule="evenodd" fill="#818282" points="32.082,1.551 32.904,1.234 
			88.652,148.64 87.83,148.957 		"/>
		<polygon clip-path="url(#SVGID_2_)" fill-rule="evenodd" clip-rule="evenodd" fill="#828383" points="32.62,1.329 33.442,1.044 
			89.189,148.419 88.367,148.736 		"/>
		<polygon clip-path="url(#SVGID_2_)" fill-rule="evenodd" clip-rule="evenodd" fill="#838484" points="33.157,1.14 33.98,0.823 
			89.727,148.229 88.906,148.545 		"/>
		<polygon clip-path="url(#SVGID_2_)" fill-rule="evenodd" clip-rule="evenodd" fill="#848585" points="33.727,0.918 34.518,0.633 
			90.266,148.007 89.475,148.325 		"/>
		<polygon clip-path="url(#SVGID_2_)" fill-rule="evenodd" clip-rule="evenodd" fill="#858686" points="34.265,0.728 35.087,0.412 
			90.803,147.818 90.014,148.133 		"/>
		<polygon clip-path="url(#SVGID_2_)" fill-rule="evenodd" clip-rule="evenodd" fill="#868787" points="34.803,0.538 35.625,0.222 
			91.373,147.596 90.551,147.913 		"/>
		<polygon clip-path="url(#SVGID_2_)" fill-rule="evenodd" clip-rule="evenodd" fill="#888888" points="35.341,0.317 36.163,0 
			91.91,147.407 91.09,147.723 		"/>
		<polygon clip-path="url(#SVGID_2_)" fill-rule="evenodd" clip-rule="evenodd" fill="#898989" points="35.878,0.127 36.701,-0.189 
			92.449,147.185 91.627,147.501 		"/>
		<polygon clip-path="url(#SVGID_2_)" fill-rule="evenodd" clip-rule="evenodd" fill="#8A8A8A" points="36.417,-0.094 
			37.239,-0.411 92.986,146.995 92.164,147.312 		"/>
		<polygon clip-path="url(#SVGID_2_)" fill-rule="evenodd" clip-rule="evenodd" fill="#8B8B8B" points="36.986,-0.284 
			37.777,-0.601 93.525,146.774 92.701,147.09 		"/>
		<polygon clip-path="url(#SVGID_2_)" fill-rule="evenodd" clip-rule="evenodd" fill="#8C8C8C" points="37.524,-0.506 
			38.314,-0.822 94.063,146.583 93.271,146.9 		"/>
		<polygon clip-path="url(#SVGID_2_)" fill-rule="evenodd" clip-rule="evenodd" fill="#8D8D8D" points="38.062,-0.696 
			38.884,-1.012 94.633,146.363 93.809,146.678 		"/>
		<polygon clip-path="url(#SVGID_2_)" fill-rule="evenodd" clip-rule="evenodd" fill="#8E8E8E" points="38.599,-0.917 
			39.422,-1.233 95.17,146.173 94.348,146.489 		"/>
		<polygon clip-path="url(#SVGID_2_)" fill-rule="evenodd" clip-rule="evenodd" fill="#8F9090" points="39.137,-1.107 39.96,-1.423 
			95.709,145.952 94.885,146.268 		"/>
		<polygon clip-path="url(#SVGID_2_)" fill-rule="evenodd" clip-rule="evenodd" fill="#909191" points="39.675,-1.328 
			40.498,-1.645 96.246,145.761 95.422,146.078 		"/>
		<polygon clip-path="url(#SVGID_2_)" fill-rule="evenodd" clip-rule="evenodd" fill="#919292" points="40.245,-1.518 
			41.036,-1.834 96.783,145.54 95.961,145.856 		"/>
		<polygon clip-path="url(#SVGID_2_)" fill-rule="evenodd" clip-rule="evenodd" fill="#929393" points="40.782,-1.74 41.573,-2.056 
			97.322,145.35 96.529,145.666 		"/>
		<polygon clip-path="url(#SVGID_2_)" fill-rule="evenodd" clip-rule="evenodd" fill="#939494" points="41.32,-1.93 42.143,-2.246 
			97.859,145.128 97.068,145.445 		"/>
		<polygon clip-path="url(#SVGID_2_)" fill-rule="evenodd" clip-rule="evenodd" fill="#949595" points="41.858,-2.151 
			42.681,-2.467 98.43,144.939 97.605,145.255 		"/>
		<polygon clip-path="url(#SVGID_2_)" fill-rule="evenodd" clip-rule="evenodd" fill="#969696" points="42.396,-2.341 
			43.219,-2.657 98.967,144.75 98.145,145.034 		"/>
		<polygon clip-path="url(#SVGID_2_)" fill-rule="evenodd" clip-rule="evenodd" fill="#979797" points="42.934,-2.562 
			43.756,-2.879 99.504,144.527 98.682,144.844 		"/>
		<polygon clip-path="url(#SVGID_2_)" fill-rule="evenodd" clip-rule="evenodd" fill="#989898" points="43.472,-2.752 
			44.294,-3.068 100.043,144.337 99.221,144.622 		"/>
		<polygon clip-path="url(#SVGID_2_)" fill-rule="evenodd" clip-rule="evenodd" fill="#999999" points="44.042,-2.974 44.833,-3.29 
			100.58,144.116 99.758,144.432 		"/>
		<polygon clip-path="url(#SVGID_2_)" fill-rule="evenodd" clip-rule="evenodd" fill="#9A9A9A" points="44.58,-3.164 45.37,-3.48 
			101.117,143.926 100.326,144.21 		"/>
		<polygon clip-path="url(#SVGID_2_)" fill-rule="evenodd" clip-rule="evenodd" fill="#9B9B9B" points="45.117,-3.385 45.94,-3.701 
			101.688,143.706 100.865,144.021 		"/>
		<polygon clip-path="url(#SVGID_2_)" fill-rule="evenodd" clip-rule="evenodd" fill="#9C9C9C" points="45.655,-3.575 
			46.478,-3.891 102.225,143.515 101.402,143.8 		"/>
		<polygon clip-path="url(#SVGID_2_)" fill-rule="evenodd" clip-rule="evenodd" fill="#9D9E9E" points="46.192,-3.796 
			47.016,-4.081 102.764,143.293 101.941,143.61 		"/>
		<polygon clip-path="url(#SVGID_2_)" fill-rule="evenodd" clip-rule="evenodd" fill="#9E9F9F" points="46.73,-3.986 47.553,-4.302 
			103.301,143.103 102.479,143.388 		"/>
		<polygon clip-path="url(#SVGID_2_)" fill-rule="evenodd" clip-rule="evenodd" fill="#9FA0A0" points="47.3,-4.208 48.091,-4.492 
			103.838,142.882 103.018,143.199 		"/>
		<polygon clip-path="url(#SVGID_2_)" fill-rule="evenodd" clip-rule="evenodd" fill="#A0A1A1" points="47.838,-4.397 
			48.629,-4.714 104.377,142.693 103.586,142.977 		"/>
		<polygon clip-path="url(#SVGID_2_)" fill-rule="evenodd" clip-rule="evenodd" fill="#A1A2A2" points="48.376,-4.619 
			49.198,-4.903 104.914,142.471 104.125,142.788 		"/>
		<polygon clip-path="url(#SVGID_2_)" fill-rule="evenodd" clip-rule="evenodd" fill="#A3A3A3" points="48.914,-4.809 
			49.736,-5.125 105.484,142.281 104.662,142.566 		"/>
		<polygon clip-path="url(#SVGID_2_)" fill-rule="evenodd" clip-rule="evenodd" fill="#A4A4A4" points="49.452,-5.03 50.274,-5.315 
			106.021,142.059 105.199,142.376 		"/>
		<polygon clip-path="url(#SVGID_2_)" fill-rule="evenodd" clip-rule="evenodd" fill="#A5A5A5" points="49.99,-5.22 50.812,-5.536 
			106.561,141.87 105.738,142.154 		"/>
		<polygon clip-path="url(#SVGID_2_)" fill-rule="evenodd" clip-rule="evenodd" fill="#A6A6A6" points="50.527,-5.441 51.35,-5.727 
			107.098,141.648 106.275,141.964 		"/>
		<polygon clip-path="url(#SVGID_2_)" fill-rule="evenodd" clip-rule="evenodd" fill="#A7A7A7" points="51.097,-5.631 
			51.888,-5.948 107.637,141.458 106.846,141.743 		"/>
		<polygon clip-path="url(#SVGID_2_)" fill-rule="evenodd" clip-rule="evenodd" fill="#A8A8A8" points="51.634,-5.853 
			52.426,-6.137 108.174,141.238 107.383,141.553 		"/>
		<polygon clip-path="url(#SVGID_2_)" fill-rule="evenodd" clip-rule="evenodd" fill="#A9A9A9" points="52.172,-6.042 
			52.995,-6.359 108.744,141.046 107.92,141.333 		"/>
		<polygon clip-path="url(#SVGID_2_)" fill-rule="evenodd" clip-rule="evenodd" fill="#AAAAAA" points="52.71,-6.264 53.533,-6.549 
			109.281,140.826 108.457,141.142 		"/>
		<polygon clip-path="url(#SVGID_2_)" fill-rule="evenodd" clip-rule="evenodd" fill="#ABABAB" points="53.248,-6.454 54.071,-6.77 
			109.818,140.635 108.996,140.92 		"/>
		<polygon clip-path="url(#SVGID_2_)" fill-rule="evenodd" clip-rule="evenodd" fill="#ACADAD" points="53.786,-6.675 54.609,-6.96 
			110.357,140.415 109.533,140.731 		"/>
		<polygon clip-path="url(#SVGID_2_)" fill-rule="evenodd" clip-rule="evenodd" fill="#ADAEAE" points="54.355,-6.866 
			55.146,-7.182 110.895,140.225 110.072,140.541 		"/>
		<polygon clip-path="url(#SVGID_2_)" fill-rule="evenodd" clip-rule="evenodd" fill="#AEAFAF" points="54.894,-7.087 
			55.684,-7.371 111.432,140.003 110.641,140.32 		"/>
		<polygon clip-path="url(#SVGID_2_)" fill-rule="evenodd" clip-rule="evenodd" fill="#AFB0B0" points="55.431,-7.276 
			56.254,-7.593 111.971,139.813 111.18,140.13 		"/>
		<polygon clip-path="url(#SVGID_2_)" fill-rule="evenodd" clip-rule="evenodd" fill="#B1B1B1" points="55.969,-7.498 
			56.792,-7.783 112.539,139.591 111.717,139.908 		"/>
		<polygon clip-path="url(#SVGID_2_)" fill-rule="evenodd" clip-rule="evenodd" fill="#B2B2B2" points="56.507,-7.688 57.33,-8.004 
			113.078,139.402 112.256,139.718 		"/>
		<polygon clip-path="url(#SVGID_2_)" fill-rule="evenodd" clip-rule="evenodd" fill="#B3B3B3" points="57.045,-7.909 
			57.868,-8.194 113.615,139.18 112.793,139.497 		"/>
		<polygon clip-path="url(#SVGID_2_)" fill-rule="evenodd" clip-rule="evenodd" fill="#B4B4B4" points="57.583,-8.1 58.405,-8.416 
			114.152,138.991 113.33,139.307 		"/>
		<polygon clip-path="url(#SVGID_2_)" fill-rule="evenodd" clip-rule="evenodd" fill="#B5B5B5" points="58.152,-8.289 
			58.943,-8.605 114.691,138.768 113.9,139.085 		"/>
		<polygon clip-path="url(#SVGID_2_)" fill-rule="evenodd" clip-rule="evenodd" fill="#B6B6B6" points="58.69,-8.51 59.481,-8.827 
			115.229,138.579 114.438,138.896 		"/>
		<polygon clip-path="url(#SVGID_2_)" fill-rule="evenodd" clip-rule="evenodd" fill="#B7B7B7" points="59.228,-8.701 
			60.051,-9.017 115.799,138.358 114.977,138.673 		"/>
		<polygon clip-path="url(#SVGID_2_)" fill-rule="evenodd" clip-rule="evenodd" fill="#B8B8B8" points="59.766,-8.922 
			60.589,-9.238 116.336,138.167 115.514,138.484 		"/>
		<polygon clip-path="url(#SVGID_2_)" fill-rule="evenodd" clip-rule="evenodd" fill="#B9B9B9" points="60.304,-9.111 
			61.126,-9.428 116.873,137.947 116.053,138.263 		"/>
		<polygon clip-path="url(#SVGID_2_)" fill-rule="evenodd" clip-rule="evenodd" fill="#BABBBB" points="60.842,-9.333 
			61.664,-9.649 117.412,137.757 116.59,138.073 		"/>
		<polygon clip-path="url(#SVGID_2_)" fill-rule="evenodd" clip-rule="evenodd" fill="#BBBCBC" points="61.411,-9.523 
			62.202,-9.839 117.949,137.535 117.127,137.852 		"/>
		<polygon clip-path="url(#SVGID_2_)" fill-rule="evenodd" clip-rule="evenodd" fill="#BCBDBD" points="61.949,-9.744 
			62.74,-10.061 118.488,137.345 117.697,137.663 		"/>
		<polygon clip-path="url(#SVGID_2_)" fill-rule="evenodd" clip-rule="evenodd" fill="#BDBEBE" points="62.487,-9.935 
			63.309,-10.25 119.025,137.124 118.234,137.44 		"/>
		<polygon clip-path="url(#SVGID_2_)" fill-rule="evenodd" clip-rule="evenodd" fill="#BFBFBF" points="63.025,-10.156 
			63.847,-10.472 119.596,136.934 118.773,137.25 		"/>
		<polygon clip-path="url(#SVGID_2_)" fill-rule="evenodd" clip-rule="evenodd" fill="#C0C0C0" points="63.563,-10.345 
			64.385,-10.662 120.133,136.712 119.311,137.029 		"/>
		<polygon clip-path="url(#SVGID_2_)" fill-rule="evenodd" clip-rule="evenodd" fill="#C1C1C1" points="64.101,-10.567 
			64.923,-10.883 120.672,136.523 119.848,136.839 		"/>
		<polygon clip-path="url(#SVGID_2_)" fill-rule="evenodd" clip-rule="evenodd" fill="#C2C2C2" points="64.638,-10.757 
			65.46,-11.073 121.209,136.333 120.385,136.618 		"/>
		<polygon clip-path="url(#SVGID_2_)" fill-rule="evenodd" clip-rule="evenodd" fill="#C3C3C3" points="65.208,-10.978 66,-11.295 
			121.748,136.111 120.955,136.428 		"/>
		<polygon clip-path="url(#SVGID_2_)" fill-rule="evenodd" clip-rule="evenodd" fill="#C4C4C4" points="65.746,-11.168 
			66.568,-11.484 122.285,135.921 121.494,136.206 		"/>
		<polygon clip-path="url(#SVGID_2_)" fill-rule="evenodd" clip-rule="evenodd" fill="#C5C5C5" points="66.283,-11.39 
			67.107,-11.706 122.855,135.701 122.031,136.016 		"/>
		<polygon clip-path="url(#SVGID_2_)" fill-rule="evenodd" clip-rule="evenodd" fill="#C6C6C6" points="66.822,-11.579 
			67.644,-11.896 123.393,135.51 122.568,135.795 		"/>
		<polygon clip-path="url(#SVGID_2_)" fill-rule="evenodd" clip-rule="evenodd" fill="#C7C7C7" points="67.359,-11.801 
			68.181,-12.117 123.93,135.29 123.107,135.605 		"/>
		<polygon clip-path="url(#SVGID_2_)" fill-rule="evenodd" clip-rule="evenodd" fill="#C8C9C9" points="67.897,-11.991 
			68.72,-12.307 124.467,135.098 123.645,135.384 		"/>
		<polygon clip-path="url(#SVGID_2_)" fill-rule="evenodd" clip-rule="evenodd" fill="#C9CACA" points="68.466,-12.212 
			69.257,-12.497 125.006,134.877 124.184,135.193 		"/>
		<polygon clip-path="url(#SVGID_2_)" fill-rule="evenodd" clip-rule="evenodd" fill="#CACBCB" points="69.004,-12.402 
			69.795,-12.718 125.543,134.688 124.752,134.972 		"/>
		<polygon clip-path="url(#SVGID_2_)" fill-rule="evenodd" clip-rule="evenodd" fill="#CCCCCC" points="69.542,-12.624 
			70.365,-12.908 126.08,134.466 125.291,134.783 		"/>
		<polygon clip-path="url(#SVGID_2_)" fill-rule="evenodd" clip-rule="evenodd" fill="#CDCDCD" points="70.081,-12.813 
			70.903,-13.13 126.65,134.277 125.828,134.561 		"/>
		<polygon clip-path="url(#SVGID_2_)" fill-rule="evenodd" clip-rule="evenodd" fill="#CECECE" points="70.618,-13.035 
			71.441,-13.319 127.188,134.055 126.365,134.372 		"/>
		<polygon clip-path="url(#SVGID_2_)" fill-rule="evenodd" clip-rule="evenodd" fill="#CFCFCF" points="71.156,-13.225 
			71.978,-13.541 127.727,133.865 126.904,134.15 		"/>
		<polygon clip-path="url(#SVGID_2_)" fill-rule="evenodd" clip-rule="evenodd" fill="#D0D0D0" points="71.694,-13.446 
			72.516,-13.731 128.264,133.643 127.441,133.959 		"/>
		<polygon clip-path="url(#SVGID_2_)" fill-rule="evenodd" clip-rule="evenodd" fill="#D1D1D1" points="72.263,-13.636 
			73.055,-13.953 128.803,133.454 128.012,133.738 		"/>
		<polygon clip-path="url(#SVGID_2_)" fill-rule="evenodd" clip-rule="evenodd" fill="#D2D2D2" points="72.801,-13.857 
			73.624,-14.142 129.34,133.233 128.549,133.548 		"/>
		<polygon clip-path="url(#SVGID_2_)" fill-rule="evenodd" clip-rule="evenodd" fill="#D3D3D3" points="73.338,-14.047 
			74.163,-14.364 129.908,133.042 129.088,133.328 		"/>
		<polygon clip-path="url(#SVGID_2_)" fill-rule="evenodd" clip-rule="evenodd" fill="#D4D4D4" points="73.876,-14.269 
			74.7,-14.553 130.447,132.821 129.625,133.137 		"/>
		<polygon clip-path="url(#SVGID_2_)" fill-rule="evenodd" clip-rule="evenodd" fill="#D5D5D5" points="74.416,-14.458 
			75.237,-14.775 130.984,132.63 130.162,132.917 		"/>
		<polygon clip-path="url(#SVGID_2_)" fill-rule="evenodd" clip-rule="evenodd" fill="#D6D6D6" points="74.953,-14.68 
			75.776,-14.965 131.523,132.41 130.701,132.726 		"/>
		<polygon clip-path="url(#SVGID_2_)" fill-rule="evenodd" clip-rule="evenodd" fill="#D7D8D8" points="75.523,-14.87 
			76.313,-15.187 132.061,132.22 131.238,132.504 		"/>
		<polygon clip-path="url(#SVGID_2_)" fill-rule="evenodd" clip-rule="evenodd" fill="#D8D9D9" points="76.061,-15.091 
			76.852,-15.376 132.6,131.999 131.809,132.315 		"/>
		<polygon clip-path="url(#SVGID_2_)" fill-rule="evenodd" clip-rule="evenodd" fill="#DADADA" points="76.598,-15.281 
			77.42,-15.598 133.168,131.809 132.346,132.125 		"/>
		<polygon clip-path="url(#SVGID_2_)" fill-rule="evenodd" clip-rule="evenodd" fill="#DBDBDB" points="77.137,-15.502 
			77.959,-15.788 133.707,131.586 132.883,131.904 		"/>
		<polygon clip-path="url(#SVGID_2_)" fill-rule="evenodd" clip-rule="evenodd" fill="#DCDCDC" points="77.674,-15.692 
			78.496,-16.009 134.244,131.397 133.422,131.714 		"/>
		<polygon clip-path="url(#SVGID_2_)" fill-rule="evenodd" clip-rule="evenodd" fill="#DDDDDD" points="78.211,-15.914 
			79.033,-16.199 134.783,131.175 133.959,131.492 		"/>
		<polygon clip-path="url(#SVGID_2_)" fill-rule="evenodd" clip-rule="evenodd" fill="#DEDEDE" points="78.75,-16.104 
			79.572,-16.42 135.32,130.986 134.496,131.302 		"/>
		<polygon clip-path="url(#SVGID_2_)" fill-rule="evenodd" clip-rule="evenodd" fill="#DFDFDF" points="79.318,-16.326 
			80.109,-16.61 135.857,130.765 135.066,131.081 		"/>
		<polygon clip-path="url(#SVGID_2_)" fill-rule="evenodd" clip-rule="evenodd" fill="#E0E0E0" points="79.857,-16.515 
			80.68,-16.832 136.396,130.575 135.604,130.891 		"/>
		<polygon clip-path="url(#SVGID_2_)" fill-rule="evenodd" clip-rule="evenodd" fill="#E1E1E1" points="80.395,-16.705 
			81.217,-17.021 136.965,130.353 136.143,130.669 		"/>
		<polygon clip-path="url(#SVGID_2_)" fill-rule="evenodd" clip-rule="evenodd" fill="#E2E2E2" points="80.932,-16.927 
			81.756,-17.243 137.504,130.163 136.68,130.479 		"/>
		<polygon clip-path="url(#SVGID_2_)" fill-rule="evenodd" clip-rule="evenodd" fill="#E3E3E3" points="81.469,-17.116 
			82.293,-17.433 138.041,129.942 137.219,130.258 		"/>
		<polygon clip-path="url(#SVGID_2_)" fill-rule="evenodd" clip-rule="evenodd" fill="#E4E4E4" points="82.008,-17.337 
			82.832,-17.654 138.578,129.752 137.756,130.068 		"/>
		<polygon clip-path="url(#SVGID_2_)" fill-rule="evenodd" clip-rule="evenodd" fill="#E5E6E6" points="82.576,-17.528 
			83.369,-17.844 139.115,129.531 138.295,129.847 		"/>
		<polygon clip-path="url(#SVGID_2_)" fill-rule="evenodd" clip-rule="evenodd" fill="#E7E7E7" points="83.115,-17.749 
			83.906,-18.065 139.654,129.341 138.863,129.658 		"/>
		<polygon clip-path="url(#SVGID_2_)" fill-rule="evenodd" clip-rule="evenodd" fill="#E8E8E8" points="83.652,-17.939 
			84.477,-18.255 140.223,129.119 139.4,129.436 		"/>
		<polygon clip-path="url(#SVGID_2_)" fill-rule="evenodd" clip-rule="evenodd" fill="#E9E9E9" points="84.191,-18.161 
			85.014,-18.477 140.762,128.929 139.939,129.246 		"/>
		<polygon clip-path="url(#SVGID_2_)" fill-rule="evenodd" clip-rule="evenodd" fill="#EAEAEA" points="84.729,-18.35 
			85.551,-18.667 141.299,128.708 140.477,129.024 		"/>
		<polygon clip-path="url(#SVGID_2_)" fill-rule="evenodd" clip-rule="evenodd" fill="#EBEBEB" points="85.268,-18.571 
			86.09,-18.888 141.838,128.518 141.016,128.834 		"/>
		<polygon clip-path="url(#SVGID_2_)" fill-rule="evenodd" clip-rule="evenodd" fill="#ECECEC" points="85.836,-18.762 
			86.627,-19.078 142.375,128.297 141.553,128.613 		"/>
		<polygon clip-path="url(#SVGID_2_)" fill-rule="evenodd" clip-rule="evenodd" fill="#EDEDED" points="86.375,-18.983 
			87.164,-19.3 142.912,128.106 142.123,128.423 		"/>
		<polygon clip-path="url(#SVGID_2_)" fill-rule="evenodd" clip-rule="evenodd" fill="#EEEEEE" points="86.912,-19.173 
			87.734,-19.489 143.451,127.917 142.66,128.202 		"/>
		<polygon clip-path="url(#SVGID_2_)" fill-rule="evenodd" clip-rule="evenodd" fill="#EFEFEF" points="87.451,-19.395 
			88.271,-19.71 144.02,127.695 143.197,128.011 		"/>
		<polygon clip-path="url(#SVGID_2_)" fill-rule="evenodd" clip-rule="evenodd" fill="#F0F0F0" points="87.988,-19.584 
			88.811,-19.901 144.559,127.505 143.736,127.791 		"/>
		<polygon clip-path="url(#SVGID_2_)" fill-rule="evenodd" clip-rule="evenodd" fill="#F1F1F1" points="88.525,-19.805 
			89.348,-20.122 145.096,127.285 144.273,127.6 		"/>
		<polygon clip-path="url(#SVGID_2_)" fill-rule="evenodd" clip-rule="evenodd" fill="#F2F2F2" points="89.064,-19.996 
			89.887,-20.312 145.635,127.094 144.811,127.379 		"/>
		<polygon clip-path="url(#SVGID_2_)" fill-rule="evenodd" clip-rule="evenodd" fill="#F3F4F4" points="89.633,-20.217 
			90.424,-20.534 146.172,126.873 145.35,127.19 		"/>
		<polygon clip-path="url(#SVGID_2_)" fill-rule="evenodd" clip-rule="evenodd" fill="#F5F5F5" points="90.172,-20.406 
			90.963,-20.723 146.711,126.683 145.918,126.968 		"/>
		<polygon clip-path="url(#SVGID_2_)" fill-rule="evenodd" clip-rule="evenodd" fill="#F6F6F6" points="90.709,-20.628 
			91.531,-20.913 147.279,126.461 146.457,126.778 		"/>
		<polygon clip-path="url(#SVGID_2_)" fill-rule="evenodd" clip-rule="evenodd" fill="#F7F7F7" points="91.246,-20.818 
			92.068,-21.135 147.818,126.272 146.994,126.556 		"/>
		<polygon clip-path="url(#SVGID_2_)" fill-rule="evenodd" clip-rule="evenodd" fill="#F8F8F8" points="91.785,-21.039 
			92.607,-21.324 148.355,126.05 147.531,126.367 		"/>
		<polygon clip-path="url(#SVGID_2_)" fill-rule="evenodd" clip-rule="evenodd" fill="#F9F9F9" points="92.322,-21.229 
			93.145,-21.545 148.893,125.861 148.07,126.145 		"/>
		<polygon clip-path="url(#SVGID_2_)" fill-rule="evenodd" clip-rule="evenodd" fill="#FAFAFA" points="92.893,-21.451 
			93.684,-21.736 149.432,125.638 148.607,125.956 		"/>
		<polygon clip-path="url(#SVGID_2_)" fill-rule="evenodd" clip-rule="evenodd" fill="#FBFBFB" points="93.43,-21.64 
			94.221,-21.957 149.969,125.449 149.178,125.733 		"/>
		<polygon clip-path="url(#SVGID_2_)" fill-rule="evenodd" clip-rule="evenodd" fill="#FCFCFC" points="93.967,-21.862 
			94.791,-22.146 150.506,125.228 149.715,125.543 		"/>
		<polygon clip-path="url(#SVGID_2_)" fill-rule="evenodd" clip-rule="evenodd" fill="#FDFDFD" points="94.506,-22.052 
			95.328,-22.369 151.076,125.038 150.254,125.323 		"/>
		<polygon clip-path="url(#SVGID_2_)" fill-rule="evenodd" clip-rule="evenodd" fill="#FEFEFE" points="95.043,-22.273 
			95.867,-22.558 151.613,124.817 150.791,125.132 		"/>
		<polygon clip-path="url(#SVGID_2_)" fill-rule="evenodd" clip-rule="evenodd" fill="#FEFEFE" points="95.58,-22.463 
			96.404,-22.779 152.152,124.627 151.33,124.912 		"/>
		<polygon clip-path="url(#SVGID_2_)" fill-rule="evenodd" clip-rule="evenodd" fill="#FEFEFE" points="96.119,-22.685 
			96.941,-22.97 152.689,124.405 151.867,124.722 		"/>
		<polygon clip-path="url(#SVGID_2_)" fill-rule="evenodd" clip-rule="evenodd" fill="#FEFEFE" points="96.688,-22.875 
			97.48,-23.191 153.227,124.215 152.438,124.5 		"/>
		<polygon clip-path="url(#SVGID_2_)" fill-rule="evenodd" clip-rule="evenodd" fill="#FEFEFE" points="97.227,-23.096 
			98.018,-23.38 153.766,123.994 152.975,124.31 		"/>
		<polygon clip-path="url(#SVGID_2_)" fill-rule="evenodd" clip-rule="evenodd" fill="#FEFEFE" points="97.764,-23.286 
			98.588,-23.603 154.334,123.804 153.512,124.088 		"/>
		<polygon clip-path="url(#SVGID_2_)" fill-rule="evenodd" clip-rule="evenodd" fill="#FEFEFE" points="98.303,-23.507 
			99.125,-23.792 154.873,123.583 154.051,123.899 		"/>
		<polygon clip-path="url(#SVGID_2_)" fill-rule="evenodd" clip-rule="evenodd" fill="#FEFEFE" points="98.84,-23.697 
			99.662,-24.013 155.41,123.392 154.588,123.677 		"/>
		<polygon clip-path="url(#SVGID_2_)" fill-rule="evenodd" clip-rule="evenodd" fill="#FEFEFE" points="99.379,-23.918 
			100.199,-24.204 155.949,123.17 155.127,123.488 		"/>
		<polygon clip-path="url(#SVGID_2_)" fill-rule="evenodd" clip-rule="evenodd" fill="#FEFEFE" points="99.947,-24.109 
			100.738,-24.425 156.486,122.981 155.664,123.297 		"/>
		<polygon clip-path="url(#SVGID_2_)" fill-rule="evenodd" clip-rule="evenodd" fill="#FEFEFE" points="100.486,-24.33 
			101.275,-24.615 157.023,122.76 156.234,123.076 		"/>
		<polygon clip-path="url(#SVGID_2_)" fill-rule="evenodd" clip-rule="evenodd" fill="#FEFEFE" points="101.023,-24.52 
			101.846,-24.836 157.563,122.57 156.771,122.886 		"/>
		<polygon clip-path="url(#SVGID_2_)" fill-rule="evenodd" clip-rule="evenodd" fill="#FEFEFE" points="101.561,-24.741 
			102.383,-25.026 158.131,122.349 157.309,122.665 		"/>
		<polygon clip-path="url(#SVGID_2_)" fill-rule="evenodd" clip-rule="evenodd" fill="#FEFEFE" points="102.1,-24.931 
			102.922,-25.248 158.67,122.158 157.846,122.475 		"/>
		<polygon clip-path="url(#SVGID_2_)" fill-rule="evenodd" clip-rule="evenodd" fill="#FEFEFE" points="102.637,-25.152 
			103.459,-25.438 159.207,121.937 158.385,122.254 		"/>
		<polygon clip-path="url(#SVGID_2_)" fill-rule="evenodd" clip-rule="evenodd" fill="#FEFEFE" points="103.174,-25.342 
			103.998,-25.659 159.746,121.748 158.922,122.063 		"/>
		<polygon clip-path="url(#SVGID_2_)" fill-rule="evenodd" clip-rule="evenodd" fill="#FEFEFE" points="103.744,-25.532 
			104.535,-25.849 160.283,121.526 159.492,121.842 		"/>
		<polygon clip-path="url(#SVGID_2_)" fill-rule="evenodd" clip-rule="evenodd" fill="#FEFEFE" points="104.281,-25.753 
			105.072,-26.07 160.82,121.336 160.029,121.653 		"/>
		<polygon clip-path="url(#SVGID_2_)" fill-rule="evenodd" clip-rule="evenodd" fill="#FEFEFE" points="104.82,-25.944 
			105.643,-26.26 161.391,121.115 160.566,121.431 		"/>
		<polygon clip-path="url(#SVGID_2_)" fill-rule="evenodd" clip-rule="evenodd" fill="#FEFEFE" points="105.357,-26.165 
			106.18,-26.481 161.928,120.924 161.105,121.242 		"/>
		<polygon clip-path="url(#SVGID_2_)" fill-rule="evenodd" clip-rule="evenodd" fill="#FEFEFE" points="105.895,-26.354 
			106.719,-26.671 162.467,120.703 161.643,121.019 		"/>
		<polygon clip-path="url(#SVGID_2_)" fill-rule="evenodd" clip-rule="evenodd" fill="#FEFEFE" points="106.434,-26.576 
			107.256,-26.893 163.004,120.513 162.182,120.83 		"/>
		<polygon clip-path="url(#SVGID_2_)" fill-rule="evenodd" clip-rule="evenodd" fill="#FEFEFE" points="107.002,-26.766 
			107.795,-27.083 163.541,120.292 162.719,120.608 		"/>
		<polygon clip-path="url(#SVGID_2_)" fill-rule="evenodd" clip-rule="evenodd" fill="#FEFEFE" points="107.541,-26.988 
			108.332,-27.304 164.08,120.102 163.289,120.418 		"/>
		<polygon clip-path="url(#SVGID_2_)" fill-rule="evenodd" clip-rule="evenodd" fill="#FEFEFE" points="108.078,-27.178 
			108.902,-27.494 164.617,119.881 163.826,120.197 		"/>
		<polygon clip-path="url(#SVGID_2_)" fill-rule="evenodd" clip-rule="evenodd" fill="#FEFEFE" points="108.615,-27.399 
			109.439,-27.715 165.188,119.69 164.365,120.007 		"/>
		<polygon clip-path="url(#SVGID_2_)" fill-rule="evenodd" clip-rule="evenodd" fill="#FEFEFE" points="109.154,-27.589 
			109.977,-27.905 165.725,119.469 164.902,119.786 		"/>
		<polygon clip-path="url(#SVGID_2_)" fill-rule="evenodd" clip-rule="evenodd" fill="#FEFEFE" points="109.691,-27.81 
			110.516,-28.126 166.262,119.28 165.441,119.595 		"/>
		<polygon clip-path="url(#SVGID_2_)" fill-rule="evenodd" clip-rule="evenodd" fill="#FEFEFE" points="110.23,-28 111.053,-28.316 
			166.801,119.089 165.979,119.375 		"/>
		<polygon clip-path="url(#SVGID_2_)" fill-rule="evenodd" clip-rule="evenodd" fill="#FEFEFE" points="110.799,-28.222 
			111.59,-28.538 167.338,118.869 166.547,119.185 		"/>
		<polygon clip-path="url(#SVGID_2_)" fill-rule="evenodd" clip-rule="evenodd" fill="#FEFEFE" points="111.338,-28.412 
			112.16,-28.728 167.877,118.678 167.086,118.963 		"/>
		<polygon clip-path="url(#SVGID_2_)" fill-rule="evenodd" clip-rule="evenodd" fill="#FEFEFE" points="111.875,-28.633 
			112.697,-28.949 168.445,118.457 167.623,118.774 		"/>
		<polygon clip-path="url(#SVGID_2_)" fill-rule="evenodd" clip-rule="evenodd" fill="#FEFEFE" points="112.414,-28.823 
			113.236,-29.139 168.984,118.267 168.162,118.551 		"/>
		<polygon clip-path="url(#SVGID_2_)" fill-rule="evenodd" clip-rule="evenodd" fill="#FEFEFE" points="112.951,-29.044 
			113.773,-29.361 169.521,118.045 168.699,118.362 		"/>
		<polygon clip-path="url(#SVGID_2_)" fill-rule="evenodd" clip-rule="evenodd" fill="#FEFEFE" points="113.49,-29.234 
			114.311,-29.55 170.059,117.856 169.236,118.14 		"/>
		<polygon clip-path="url(#SVGID_2_)" fill-rule="evenodd" clip-rule="evenodd" fill="#FEFEFE" points="114.059,-29.456 
			114.85,-29.74 170.598,117.634 169.775,117.951 		"/>
		<polygon clip-path="url(#SVGID_2_)" fill-rule="evenodd" clip-rule="evenodd" fill="#FEFEFE" points="114.598,-29.646 
			114.787,-29.74 170.533,117.667 170.344,117.729 		"/>
	</g>
	<path fill-rule="evenodd" clip-rule="evenodd" fill="#CC0922" d="M63.467,29.963l1.646,1.36c0.569,0.506,0.98,0.95,1.52,1.519
		c0.758,0.759,2.023,2.5,2.625,3.449c1.583,2.594,2.721,5.157,3.765,8.321c2.12,6.486,3.767,12.022,5.632,18.604
		c0.633,2.246,2.025,7.562,2.721,9.364c4.969,12.751,22.305,11.169,25.943,1.772c0.697-1.804,0.635-3.322,0.635-5.441V44.675
		c0-1.55-0.412-4.271,1.645-4.367c1.074-0.063,1.455,0.602,1.834,1.266c3.197,5.506,7.783,22.938,9.588,29.772
		c0.441,1.614,0.822,3.259,1.232,4.873c0.191,0.79,0.412,1.582,0.635,2.437c0.158,0.663,0.379,1.771,0.631,2.404h11.613
		c0-0.412-5.443-19.237-5.729-20.281c-1.391-5.031-2.941-10.156-4.334-15.187s-2.658-9.492-6.422-13.193
		c-1.014-1.013-2.311-1.993-3.893-2.626c-2.057-0.854-3.258-0.854-5.727-0.823c-5.252,0.031-10.439,2.658-11.959,7.562
		c-0.57,1.93-0.443,3.955-0.443,6.106c0,4.335,0,8.669,0,13.003c0,4.303,0.096,8.732,0,13.035c-0.096,2.88-2.436,2.342-3.576,1.328
		c-0.949-0.854-1.549-2.973-2.023-4.492c-2.879-9.27-4.777-22.4-9.459-29.74c-3.672-5.727-8.892-7.784-15.536-6.518
		C65.398,29.33,63.815,29.646,63.467,29.963L63.467,29.963z"/>
	<path fill-rule="evenodd" clip-rule="evenodd" d="M39.865,39.549c3.005,0,6.043,0,9.08,0c3.543,0,4.967,0.063,7.024,1.993
		c1.455,1.361,2.626,3.829,3.227,5.822c1.994,6.676,0.917,17.211-4.019,21.293c-2.183,1.772-4.271,1.486-7.561,1.486
		c-3.006,0-6.011,0-9.049,0V41.321H27.463L27.431,81.06c2.594,0.126,5.41,0.031,8.036,0.031h16.135c2.785,0,4.651-0.126,7.119-0.949
		c7.024-2.31,11.928-10.314,13.067-19.237c1.297-10.124-0.918-19.489-5.916-25.69c-2.12-2.626-5.252-5.284-10.062-6.075
		c-2.341-0.379-5.379-0.221-7.847-0.221c-2.689,0-5.41-0.032-8.099,0V39.549L39.865,39.549z"/>
	<polygon fill-rule="evenodd" clip-rule="evenodd" fill="#CD0922" points="14.016,81.06 25.153,81.091 25.153,41.321 14.047,41.321 
			"/>
	<path fill-rule="evenodd" clip-rule="evenodd" fill="#FFFFFF" d="M129.594,32.399c1.391-0.063,3.574-0.221,4.303,0.633
		c0.379,0.475,0.506,1.265,0.252,1.961c-0.221,0.632-0.76,0.791-1.201,0.949c0,0-0.064,0.032-0.096,0.032l-0.063,0.063
		c0.348,0.696,1.012,1.456,1.328,2.183l-0.949-0.031c-0.127-0.285-1.17-1.898-1.359-2.12h-1.266v2.151l-0.949-0.031V32.399
		L129.594,32.399z M126.207,35.848c0.285,2.752,2.691,5.093,5.854,4.777c2.785-0.253,5.096-2.721,4.809-5.822
		c-0.252-2.816-2.752-5.125-5.916-4.84C128.232,30.215,125.859,32.747,126.207,35.848L126.207,35.848z"/>
	<path fill-rule="evenodd" clip-rule="evenodd" d="M14.016,39.676l8.353-8.068c0.475-0.443,0.981-0.886,1.392-1.329
		c0.285-0.316,1.234-1.139,1.361-1.36l-11.074-0.032L14.016,39.676z"/>
	<path fill-rule="evenodd" clip-rule="evenodd" fill="#CC0922" d="M62.012,81.06c2.753,0.095,6.169,0.031,8.858,0.031h1.233
		c0.097-2.848,0-7.056,0-10.03v-2.436c-0.22,0.254-0.663,1.518-0.885,1.962c-1.931,4.081-4.556,7.529-8.353,9.934
		C62.645,80.648,62.17,80.871,62.012,81.06L62.012,81.06z"/>
	<path fill-rule="evenodd" clip-rule="evenodd" d="M126.207,35.848c-0.348-3.101,2.025-5.632,4.746-5.885
		c3.164-0.285,5.664,2.024,5.916,4.84c0.287,3.101-2.023,5.568-4.809,5.822C128.898,40.941,126.492,38.6,126.207,35.848
		L126.207,35.848z M130.795,29.013c-3.227,0.412-6.012,3.291-5.535,7.056c0.379,3.196,3.352,5.948,7.021,5.505
		c3.197-0.411,5.949-3.29,5.537-6.992C137.439,31.386,134.496,28.57,130.795,29.013L130.795,29.013z"/>
	<path fill-rule="evenodd" clip-rule="evenodd" d="M74.953,87.64c1.108,0,2.69-0.063,3.764,0.031
		c1.141,0.127,1.994,0.665,1.994,1.805v0.095c0,1.455-1.393,1.866-2.816,1.866h-2.942v-0.38V87.64z M78.75,92.228
		c1.201-0.189,2.215-0.506,2.719-1.392c0.604-0.981,0.381-2.373-0.314-3.102c-0.791-0.854-1.74-0.948-3.195-0.948
		c-1.33,0-2.69,0-4.05,0v10.155h1.044v-4.619c0.537-0.126,2.088-0.063,2.594,0.127c1.234,0.411,1.93,1.74,2.721,2.879
		c0.223,0.253,0.381,0.538,0.602,0.854c0.664,0.95,0.221,0.76,1.805,0.76c-0.16-0.379-1.426-2.088-1.742-2.594
		C79.73,92.576,79.098,92.607,78.75,92.228L78.75,92.228z"/>
	<path fill-rule="evenodd" clip-rule="evenodd" fill="#D0061F" d="M127.6,96.087l-0.031-8.416c3.48-0.221,6.707-0.157,6.707,4.178
		c-0.031,1.771-0.537,3.068-1.676,3.765C131.492,96.247,129.088,96.151,127.6,96.087L127.6,96.087z M126.557,96.942
		c1.139,0.032,2.309,0,3.449,0c1.17,0,1.992,0.032,2.941-0.442c1.518-0.76,2.404-2.31,2.404-4.588c0-2.277-0.822-3.859-2.311-4.619
		c-0.918-0.475-1.771-0.506-2.973-0.506c-1.17,0-2.404-0.032-3.543,0.031C126.492,87.957,126.461,96.5,126.557,96.942
		L126.557,96.942z"/>
	<path fill-rule="evenodd" clip-rule="evenodd" fill="#D0061F" d="M97.859,87.704c0.412-0.127,2.184-0.063,2.689-0.032
		c0.854,0,1.645,0.158,2.246,0.476c2.404,1.297,2.309,6.17,0,7.498c-0.602,0.348-1.424,0.442-2.309,0.442
		c-0.477,0-2.248,0.063-2.627-0.031V87.704L97.859,87.704z M96.814,96.942c0.98,0.095,2.469,0,3.48,0c1.234,0,2.025,0,3.006-0.474
		c1.52-0.76,2.342-2.437,2.342-4.619c0-2.215-0.887-3.86-2.404-4.588c-1.014-0.507-1.74-0.475-3.006-0.475
		c-1.076,0-2.373-0.064-3.418,0V96.942L96.814,96.942z"/>
	<path fill-rule="evenodd" clip-rule="evenodd" d="M52.046,91.912h-4.461l-0.032,0.823l3.48,0.031v2.373
		c-0.221,0.442-1.772,0.98-2.373,1.107c-3.227,0.601-5.821-1.203-5.537-4.873c0.158-2.024,1.36-3.417,3.164-3.828
		c2.341-0.506,4.018,0.538,4.587,2.278l1.013-0.253c-0.189-1.14-1.202-2.151-2.247-2.563c-1.202-0.476-2.847-0.476-4.145-0.095
		c-2.373,0.695-3.859,2.973-3.385,6.105c0.601,4.176,5.664,5.157,9.302,3.068c0.221-0.126,0.601-0.253,0.665-0.537L52.046,91.912
		L52.046,91.912z"/>
	<path fill-rule="evenodd" clip-rule="evenodd" fill="#D0061F" d="M15.756,93.841l-1.044,0.064c0.189,4.238,6.644,4.049,7.72,1.328
		c0.538-1.36,0-2.499-0.854-3.069c-0.949-0.632-2.025-0.76-3.227-1.044c-1.076-0.284-2.373-0.79-2.151-2.151
		c0.158-1.107,1.455-1.582,2.784-1.519c1.456,0.095,2.088,0.728,2.31,2.088l1.012-0.031c-0.031-1.36-0.791-2.184-1.771-2.563
		c-1.867-0.729-5.537-0.349-5.379,2.626c0.126,2.688,3.765,2.341,5.442,3.195c2.436,1.266,0.316,4.334-2.911,3.48
		C16.452,95.898,16.009,95.171,15.756,93.841L15.756,93.841z"/>
	<path fill-rule="evenodd" clip-rule="evenodd" fill="#D0061F" d="M115.734,87.893c0.096,0.128,2.121,4.651,2.215,5.031
		l-4.365-0.031L115.734,87.893z M110.799,96.942h1.107l1.361-3.195l5.094-0.032l1.393,3.228h1.139
		c-0.096-0.474-2.943-6.58-3.418-7.561l-1.139-2.563l-1.139-0.031l-1.107,2.499C113.68,90.266,110.895,96.468,110.799,96.942
		L110.799,96.942z"/>
	<path fill-rule="evenodd" clip-rule="evenodd" d="M58.626,93.874c-0.031,1.106,0.665,2.056,1.234,2.468
		c2.089,1.519,7.024,1.043,7.024-2.404l0.031-7.087h-0.98v6.675c-0.031,0.222-0.031,0.127-0.063,0.189
		c-0.064,1.836-1.361,2.659-3.196,2.627c-0.917-0.031-1.709-0.285-2.215-0.728c-0.411-0.348-0.823-1.202-0.791-2.025
		c-0.032-0.031-0.032-0.063-0.032-0.063c0-0.031-0.031-0.031-0.031-0.063l-0.032-6.611h-0.981L58.626,93.874L58.626,93.874z"/>
	<path fill-rule="evenodd" clip-rule="evenodd" fill="#D3061F" d="M30.025,96.12v-3.955l5.473-0.031l0.032-0.854h-5.442
		l-0.063-3.607c0.063-0.221-0.126-0.095,0.284-0.157h1.107c0.886,0,3.955,0.063,4.398-0.032l-0.032-0.537
		c-0.601-0.063-6.328-0.063-6.676,0.031c-0.095,0.791-0.063,9.556,0.032,9.808c0.285,0.127,6.676,0.096,6.897,0v-0.537l-4.556,0.032
		c-0.253,0-0.506-0.032-0.791-0.032C29.931,96.279,30.088,96.247,30.025,96.12L30.025,96.12z"/>
	<path fill-rule="evenodd" clip-rule="evenodd" d="M130.543,35.215v-2.025c0.348-0.095,1.455-0.063,1.834,0
		c1.172,0.159,1.424,1.646,0.033,1.994C132.092,35.278,130.891,35.31,130.543,35.215L130.543,35.215z M129.594,38.189l0.949,0.031
		v-2.151h1.266c0.189,0.222,1.232,1.835,1.359,2.12l0.949,0.031c-0.316-0.728-0.98-1.487-1.328-2.183l0.063-0.063
		c0.031,0,0.096-0.032,0.096-0.032c0.441-0.158,0.98-0.317,1.201-0.949c0.254-0.696,0.127-1.487-0.252-1.961
		c-0.729-0.854-2.912-0.696-4.303-0.633V38.189L129.594,38.189z"/>
	<path fill-rule="evenodd" clip-rule="evenodd" fill="#D3061F" d="M88.684,86.787c-0.094,0.253-0.127,9.776-0.031,10.155h1.012
		l-0.031-10.155H88.684z"/>
	<path fill-rule="evenodd" clip-rule="evenodd" fill="#FFFFFF" d="M130.543,35.215c0.348,0.095,1.549,0.063,1.867-0.032
		c1.391-0.348,1.139-1.835-0.033-1.994c-0.379-0.063-1.486-0.095-1.834,0V35.215L130.543,35.215z"/>
	<path fill-rule="evenodd" clip-rule="evenodd" fill="#B71321" d="M30.025,96.12c0.063,0.127-0.095,0.159,0.664,0.127
		c0.253,0,0.538,0.032,0.791,0.032l4.556-0.032v0.537c-0.221,0.096-6.612,0.127-6.897,0c-0.095-0.252-0.126-9.017-0.032-9.808
		c0.348-0.095,6.075-0.095,6.676-0.031l0.032,0.537c-0.443,0.095-3.512,0.032-4.398,0.032H30.31
		c-0.442,0.063-0.221-0.063-0.284,0.157l5.948-0.031v-0.822l-6.992-0.031v10.155h7.214V96.12H30.025L30.025,96.12z"/>
	<path fill-rule="evenodd" clip-rule="evenodd" fill="#747474" d="M65.873,93.714c0.031-0.063,0.031,0.032,0.063-0.189V86.85h0.98
		l-0.031,7.087c0.19-0.317,0.096-3.164,0.096-3.544c0-0.602,0.095-3.227-0.032-3.606h-1.044
		C65.808,87.134,65.841,92.924,65.873,93.714L65.873,93.714z"/>
	<path fill-rule="evenodd" clip-rule="evenodd" fill="#747474" d="M58.626,93.874l-0.031-7.023h0.981l0.032,6.611
		c0,0.032,0.031,0.032,0.031,0.063c0,0,0,0.032,0.032,0.063v-6.802h-1.076c-0.126,0.348-0.063,4.365-0.063,5.314
		c0,0.285,0,0.603,0,0.918l0.063,0.759c0,0.032,0,0.032,0,0.063C58.626,93.841,58.626,93.874,58.626,93.874L58.626,93.874z"/>
</g>
</svg>
